name Walk8.mot
datacolumns 19
datarows 10
range 4.24900000 4.25800000
endheader

                time	   L_ground_force_vx	   L_ground_force_vy	   L_ground_force_vz	   L_ground_force_px	   L_ground_force_py	   L_ground_force_pz	   R_ground_force_vx	   R_ground_force_vy	   R_ground_force_vz	   R_ground_force_px	   R_ground_force_py	   R_ground_force_pz	   L_ground_torque_x	   L_ground_torque_y	   L_ground_torque_z	   R_ground_torque_x	   R_ground_torque_y	   R_ground_torque_z	
          4.24900000	          0.00000000	          0.00000000	         -0.00000000	         -0.00000000	          0.00000000	         -0.00000000	          7.62269902	         23.80891441	          0.41452483	          0.17022193	          0.00000000	          0.02443102	          0.00000000	          0.00000000	          0.00000000	          0.00000000	         -1.84248316	          0.00000000	
          4.25000000	          0.00000000	          0.00000000	         -0.00000000	         -0.00000000	          0.00000000	         -0.00000000	          7.00511752	         21.24146998	          0.44924638	          0.16190065	          0.00000000	          0.02309762	          0.00000000	          0.00000000	          0.00000000	          0.00000000	         -1.70976337	          0.00000000	
          4.25100000	          0.00000000	          0.00000000	         -0.00000000	         -0.00000000	          0.00000000	         -0.00000000	          6.41357467	         18.81205380	          0.47931816	          0.15367509	          0.00000000	          0.02179032	          0.00000000	          0.00000000	          0.00000000	          0.00000000	         -1.58186717	          0.00000000	
          4.25200000	          0.00000000	          0.00000000	         -0.00000000	         -0.00000000	          0.00000000	         -0.00000000	          5.84809184	         16.51811033	          0.50502188	          0.14556820	          0.00000000	          0.02051182	          0.00000000	          0.00000000	          0.00000000	          0.00000000	         -1.45886773	          0.00000000	
          4.25300000	          0.00000000	          0.00000000	         -0.00000000	         -0.00000000	          0.00000000	         -0.00000000	          5.30859015	         14.35678939	          0.52663180	          0.13760052	          0.00000000	          0.01926452	          0.00000000	          0.00000000	          0.00000000	          0.00000000	         -1.34081349	          0.00000000	
          4.25400000	          0.00000000	          0.00000000	         -0.00000000	         -0.00000000	          0.00000000	         -0.00000000	          4.79489920	         12.32498199	          0.54441434	          0.12979033	          0.00000000	          0.01805048	          0.00000000	          0.00000000	          0.00000000	          0.00000000	         -1.22773010	          0.00000000	
          4.25500000	          0.00000000	          0.00000000	         -0.00000000	         -0.00000000	          0.00000000	         -0.00000000	          4.30676559	         10.41935408	          0.55862771	          0.12215375	          0.00000000	          0.01687145	          0.00000000	          0.00000000	          0.00000000	          0.00000000	         -1.11962222	          0.00000000	
          4.25600000	          0.00000000	          0.00000000	         -0.00000000	         -0.00000000	          0.00000000	         -0.00000000	          3.84386087	          8.63637828	          0.56952169	          0.11470487	          0.00000000	          0.01572891	          0.00000000	          0.00000000	          0.00000000	          0.00000000	         -1.01647532	          0.00000000	
          4.25700000	          0.00000000	          0.00000000	         -0.00000000	         -0.00000000	          0.00000000	         -0.00000000	          3.40578918	          6.97236364	          0.57733732	          0.10745588	          0.00000000	          0.01462408	          0.00000000	          0.00000000	          0.00000000	          0.00000000	         -0.91825739	          0.00000000	
          4.25800000	          0.00000000	          0.00000000	         -0.00000000	         -0.00000000	          0.00000000	         -0.00000000	          2.99209449	          5.42348352	          0.58230681	          0.10041718	          0.00000000	          0.01355793	          0.00000000	          0.00000000	          0.00000000	          0.00000000	         -0.82492047	          0.00000000	
